<svg id="레이어_1" data-name="레이어 1" xmlns="http://www.w3.org/2000/svg" viewBox="0 0 379.2915 72.7925"><defs><style>.cls-1{fill:#0071bc;}</style></defs><title>logoWithout</title><path class="cls-1" d="M18.33,6.1885q10.511,0,15.1919,1.728,7.9189,2.8806,7.92,11.4482,0,6.6958-7.2,10.584,8.9268,3.3845,8.9282,12.24,0,7.1279-4.6079,11.3042-5.0405,4.5359-15.0483,4.5356a11.0671,11.0671,0,0,1-4.6079-.6475,3.4247,3.4247,0,0,1-2.0879-3.3125,3.3733,3.3733,0,0,1,1.728-3.24,6.2049,6.2049,0,0,1,2.9521-.72q1.5828-.07,3.168-.144,7.2715-.6475,7.272-7.4878a6.249,6.249,0,0,0-3.96-6.12,14.873,14.873,0,0,0-5.9761-1.1519H15.0181V52.9888a5.232,5.232,0,0,1-1.4043,3.8159A4.85,4.85,0,0,1,9.978,58.2441q-5.0405,0-5.04-5.04V6.1885ZM15.0181,27.5h9A7.7756,7.7756,0,0,0,28.59,25.2324a6.3385,6.3385,0,0,0,1.7642-4.5718A6.0558,6.0558,0,0,0,28.95,16.8086a6.0489,6.0489,0,0,0-3.3838-2.2319,26.54,26.54,0,0,0-5.7241-.4683H15.0181Z" transform="translate(-4.938 -1.7964)"/><path class="cls-1" d="M86.9453,18.5V53.4927q0,4.3206-4.1763,4.9683a6.6665,6.6665,0,0,1-.936.0713,4.8115,4.8115,0,0,1-5.04-5.04V33.1167q0-5.6873-4.4644-7.1279a10.2633,10.2633,0,0,0-3.0957-.4321q-6.6255,0-8.7842,6.84a21.4149,21.4149,0,0,0-.72,5.9761q0,5.9773,2.4482,9.2158a7.1929,7.1929,0,0,0,6.12,3.0244,15.3323,15.3323,0,0,0,1.8-.144,15.3225,15.3225,0,0,1,1.728-.144q3.5991,0,3.6,3.5278,0,2.376-2.7358,3.7441a12.6918,12.6918,0,0,1-5.5444,1.08q-8.3525,0-12.96-4.896-4.968-5.2551-4.9678-15.1924t5.4722-15.6958a17.8235,17.8235,0,0,1,13.4639-5.4,15.6493,15.6493,0,0,1,10.2959,3.3838L79.313,18.5Z" transform="translate(-4.938 -1.7964)"/><path class="cls-1" d="M118.9126,28.3647a19.5715,19.5715,0,0,0-9.5762-2.7363q-5.4727,0-5.4722,3.0239,0,2.09,3.6724,3.96,2.7349,1.1521,7.9917,3.7437,6.624,3.6724,6.624,10.0083a11.04,11.04,0,0,1-4.6079,9.4321A17.7187,17.7187,0,0,1,106.8887,58.82a28.1146,28.1146,0,0,1-7.9922-1.0078q-5.113-1.5835-5.1118-5.04a3.66,3.66,0,0,1,1.26-2.9878,4.7457,4.7457,0,0,1,3.1318-1.0439,8.8558,8.8558,0,0,1,2.8081.5757,18.4945,18.4945,0,0,0,6.2642,1.2241q5.3276,0,5.3281-3.312,0-2.52-3.96-4.248a73.8811,73.8811,0,0,1-7.7764-3.7441q-6.48-3.6716-6.48-10.08a9.9914,9.9914,0,0,1,4.68-8.856,17.9132,17.9132,0,0,1,10.08-2.6641,27.771,27.771,0,0,1,12.6719,2.6641Z" transform="translate(-4.938 -1.7964)"/><path class="cls-1" d="M139.1445,1.7964V21.6685a14.7494,14.7494,0,0,1,7.1992-3.7437,15.7291,15.7291,0,0,1,3.8164-.4321q6.7661,0,10.2236,4.32,3.0249,3.8174,3.0244,10.584V53.4927a4.53,4.53,0,0,1-3.0957,4.68,5.0864,5.0864,0,0,1-2.0166.4316A4.8518,4.8518,0,0,1,154.66,57.165a5.0406,5.0406,0,0,1-1.4043-3.6724V33.1167q0-5.5437-3.6719-6.9121a8.1727,8.1727,0,0,0-2.4482-.36,8.3449,8.3449,0,0,0-6.9834,3.5278,6.5984,6.5984,0,0,0-1.0078,1.728V53.4927a4.53,4.53,0,0,1-3.0967,4.68,5.0819,5.0819,0,0,1-2.0156.4316,4.8529,4.8529,0,0,1-3.6362-1.4395,5.0422,5.0422,0,0,1-1.4038-3.6724V1.7964Z" transform="translate(-4.938 -1.7964)"/><path d="M181.335,18.5v4.248a15.2131,15.2131,0,0,1,11.8809-5.2559q8.0625,0,12.3838,5.0039t4.3193,14.7959q0,10.0811-4.8955,15.66a16.398,16.398,0,0,1-12.96,5.58q-8.0654,0-8.0645-4.8237a3.3072,3.3072,0,0,1,1.1162-2.6279,4.0692,4.0692,0,0,1,2.7725-.9722,15.3766,15.3766,0,0,1,1.7275.144,15.317,15.317,0,0,0,1.8.144q5.833,0,7.4883-6.7681a24.437,24.437,0,0,0,.5762-5.688q0-6.4072-2.3037-9.5757a7.0776,7.0776,0,0,0-6.0488-2.8081,8.4551,8.4551,0,0,0-7.56,3.8159,6.6606,6.6606,0,0,0-.9355,2.3042V69.5488a4.854,4.854,0,0,1-1.44,3.6357,5.0466,5.0466,0,0,1-3.6719,1.4043,4.8137,4.8137,0,0,1-5.04-5.04V18.5Z" transform="translate(-4.938 -1.7964)"/><path d="M234.8311,17.4927q9.1421,0,14.4717,5.9761,5.0391,5.6155,5.04,14.688,0,9.7925-5.76,15.4077-5.3291,5.2573-13.752,5.2559-9.145,0-14.5439-5.9756-5.0405-5.6162-5.04-14.688,0-9.8635,5.76-15.48Q226.4077,17.4927,234.8311,17.4927Zm0,7.92q-6.4087,0-8.4961,6.9121a22.694,22.694,0,0,0-.6484,5.76q0,6.3369,2.5928,9.6479a7.995,7.995,0,0,0,6.5518,3.0239q6.4072,0,8.4961-6.9839a19.7738,19.7738,0,0,0,.72-5.688q0-6.3347-2.6641-9.72A7.95,7.95,0,0,0,234.8311,25.4126Z" transform="translate(-4.938 -1.7964)"/><path d="M271.623,18.5V42.98q0,5.5452,3.6719,6.9121a8.1307,8.1307,0,0,0,2.4473.36,8.3429,8.3429,0,0,0,6.9844-3.5278,6.65,6.65,0,0,0,1.0078-1.728V18.5h10.08v34.56q0,5.3994-4.4639,5.4-4.0327,0-4.6084-5.3286-4.103,5.4734-11.8076,5.4722-6.3369,0-9.792-3.6006-3.6724-3.8145-3.6719-11.3032V18.5Z" transform="translate(-4.938 -1.7964)"/><path d="M313.7422,18.5v4.248a15.4517,15.4517,0,0,1,12.0967-5.2559q6.334,0,9.792,3.6,3.6709,3.8167,3.6719,11.3037V53.4927a4.9284,4.9284,0,0,1-5.1123,5.1118,4.8239,4.8239,0,0,1-3.6719-1.4395,5.1161,5.1161,0,0,1-1.3682-3.6724V33.1167q0-5.5437-3.6719-6.9121a8.1727,8.1727,0,0,0-2.4482-.36,8.3449,8.3449,0,0,0-6.9834,3.5278,6.5984,6.5984,0,0,0-1.0078,1.728V53.4927a4.9284,4.9284,0,0,1-5.1123,5.1118,4.8224,4.8224,0,0,1-3.6719-1.4395,5.1119,5.1119,0,0,1-1.3682-3.6724V18.5Z" transform="translate(-4.938 -1.7964)"/><path d="M384.2295,1.7964V52.7725q0,5.7612-5.04,5.76t-5.04-5.6157v-19.8q0-5.6873-4.68-7.1279a10.261,10.261,0,0,0-3.0957-.4321q-6.48,0-8.4961,6.84a21.4164,21.4164,0,0,0-.72,5.9761q0,5.9773,2.34,9.1079a7.3239,7.3239,0,0,0,6.1563,3.1323,15.3323,15.3323,0,0,0,1.8-.144,15.3072,15.3072,0,0,1,1.7275-.144q3.5273,0,3.5283,3.5278,0,3.6006-5.3281,4.6084a13.9273,13.9273,0,0,1-2.88.2881q-8.2808,0-13.0322-4.9683-4.9673-5.2551-4.9678-15.1924t5.4717-15.6958a17.8257,17.8257,0,0,1,13.4639-5.4,16.9839,16.9839,0,0,1,8.6406,2.16V1.7964Z" transform="translate(-4.938 -1.7964)"/></svg>
