<?xml version="1.0" encoding="utf-8"?>
<!-- Generator: Adobe Illustrator 21.0.0, SVG Export Plug-In . SVG Version: 6.00 Build 0)  -->
<svg version="1.1" id="레이어_1" xmlns="http://www.w3.org/2000/svg" xmlns:xlink="http://www.w3.org/1999/xlink" x="0px"
	 y="0px" viewBox="0 0 400 76" style="enable-background:new 0 0 400 76;" xml:space="preserve">
<style type="text/css">
	.st0{fill:none;}
	.st1{fill:#CCFFFF;}
	.st2{fill:#FFFFFF;}
</style>
<g>
	<rect x="-0.4" y="2.9" class="st0" width="400.4" height="89.1"/>
	<path class="st1" d="M18.3,6.2c7,0,12.1,0.6,15.2,1.7c5.3,1.9,7.9,5.7,7.9,11.4c0,4.5-2.4,8-7.2,10.6c6,2.3,8.9,6.3,8.9,12.2
		c0,4.8-1.5,8.5-4.6,11.3c-3.4,3-8.4,4.5-15,4.5c-2.3,0-3.8-0.2-4.6-0.6c-1.4-0.7-2.1-1.8-2.1-3.3c0-1.5,0.6-2.6,1.7-3.2
		c0.7-0.4,1.7-0.7,3-0.7c1.1,0,2.1-0.1,3.2-0.1c4.8-0.4,7.3-2.9,7.3-7.5c0-2.9-1.3-4.9-4-6.1c-1.5-0.7-3.5-1.1-6-1.2h-7V53
		c0,1.6-0.5,2.9-1.4,3.8c-0.9,1-2.1,1.4-3.6,1.4c-3.4,0-5-1.7-5-5v-47H18.3z M15,27.5h9c1.9-0.3,3.4-1,4.6-2.3
		c1.2-1.2,1.8-2.7,1.8-4.6c0-1.4-0.5-2.7-1.4-3.9c-0.9-1.2-2.1-1.9-3.4-2.2c-1.3-0.3-3.2-0.5-5.7-0.5H15V27.5z"/>
	<path class="st1" d="M86.9,18.5v35c0,2.9-1.4,4.5-4.2,5c-0.3,0-0.6,0.1-0.9,0.1c-1.5,0-2.7-0.5-3.6-1.4c-0.9-0.9-1.4-2.1-1.4-3.6
		V33.1c0-3.8-1.5-6.2-4.5-7.1c-0.9-0.3-1.9-0.4-3.1-0.4c-4.4,0-7.3,2.3-8.8,6.8c-0.5,1.6-0.7,3.6-0.7,6c0,4,0.8,7.1,2.4,9.2
		c1.5,2,3.5,3,6.1,3c0.4,0,1,0,1.8-0.1c0.8-0.1,1.3-0.1,1.7-0.1c2.4,0,3.6,1.2,3.6,3.5c0,1.6-0.9,2.8-2.7,3.7
		c-1.5,0.7-3.3,1.1-5.5,1.1c-5.6,0-9.9-1.6-13-4.9c-3.3-3.5-5-8.6-5-15.2s1.8-11.9,5.5-15.7c3.5-3.6,7.9-5.4,13.5-5.4
		c4.1,0,7.6,1.1,10.3,3.4l0.9-2.4H86.9z"/>
	<path class="st1" d="M118.9,28.4c-3.3-1.8-6.5-2.7-9.6-2.7c-3.6,0-5.5,1-5.5,3c0,1.4,1.2,2.7,3.7,4c1.8,0.8,4.5,2,8,3.7
		c4.4,2.4,6.6,5.8,6.6,10c0,4-1.5,7.2-4.6,9.4c-2.8,2-6.3,3-10.7,3c-3.1,0-5.7-0.3-8-1c-3.4-1.1-5.1-2.7-5.1-5c0-1.3,0.4-2.3,1.3-3
		c0.8-0.7,1.9-1,3.1-1c0.8,0,1.7,0.2,2.8,0.6c2.3,0.8,4.3,1.2,6.3,1.2c3.6,0,5.3-1.1,5.3-3.3c0-1.7-1.3-3.1-4-4.2
		c-3-1.2-5.6-2.5-7.8-3.7c-4.3-2.4-6.5-5.8-6.5-10.1c0-3.8,1.6-6.8,4.7-8.9c2.7-1.8,6-2.7,10.1-2.7c4.9,0,9.2,0.9,12.7,2.7
		L118.9,28.4z"/>
	<path class="st1" d="M139.1,1.8v19.9c1.8-1.8,4.2-3,7.2-3.7c1.2-0.3,2.4-0.4,3.8-0.4c4.5,0,7.9,1.4,10.2,4.3c2,2.5,3,6.1,3,10.6
		v21.1c0,2.4-1,3.9-3.1,4.7c-0.7,0.3-1.3,0.4-2,0.4c-1.5,0-2.7-0.5-3.6-1.4c-0.9-1-1.4-2.2-1.4-3.7V33.1c0-3.7-1.2-6-3.7-6.9
		c-0.8-0.2-1.6-0.4-2.4-0.4c-2.9,0-5.2,1.2-7,3.5c-0.5,0.6-0.8,1.2-1,1.7v22.4c0,2.4-1,3.9-3.1,4.7c-0.7,0.3-1.3,0.4-2,0.4
		c-1.5,0-2.7-0.5-3.6-1.4S129,55,129,53.5V1.8H139.1z"/>
	<path class="st2" d="M181.3,18.5v4.2c3.1-3.5,7.1-5.3,11.9-5.3c5.4,0,9.5,1.7,12.4,5c2.9,3.3,4.3,8.3,4.3,14.8
		c0,6.7-1.6,11.9-4.9,15.7c-3.3,3.7-7.6,5.6-13,5.6c-5.4,0-8.1-1.6-8.1-4.8c0-1.1,0.4-2,1.1-2.6s1.7-1,2.8-1c0.4,0,1,0,1.7,0.1
		c0.8,0.1,1.4,0.1,1.8,0.1c3.9,0,6.4-2.3,7.5-6.8c0.4-1.6,0.6-3.5,0.6-5.7c0-4.3-0.8-7.5-2.3-9.6c-1.4-1.9-3.4-2.8-6-2.8
		c-3.4,0-5.9,1.3-7.6,3.8c-0.5,0.8-0.8,1.5-0.9,2.3v37.9c0,1.5-0.5,2.7-1.4,3.6c-1,0.9-2.2,1.4-3.7,1.4c-1.5,0-2.7-0.5-3.6-1.4
		c-0.9-0.9-1.4-2.1-1.4-3.6v-51H181.3z"/>
	<path class="st2" d="M234.8,17.5c6.1,0,10.9,2,14.5,6c3.4,3.7,5,8.6,5,14.7c0,6.5-1.9,11.7-5.8,15.4c-3.6,3.5-8.1,5.3-13.8,5.3
		c-6.1,0-10.9-2-14.5-6c-3.4-3.7-5-8.6-5-14.7c0-6.6,1.9-11.7,5.8-15.5C224.6,19.2,229.2,17.5,234.8,17.5z M234.8,25.4
		c-4.3,0-7.1,2.3-8.5,6.9c-0.4,1.6-0.6,3.6-0.6,5.8c0,4.2,0.9,7.4,2.6,9.6c1.6,2,3.8,3,6.6,3c4.3,0,7.1-2.3,8.5-7
		c0.5-1.6,0.7-3.5,0.7-5.7c0-4.2-0.9-7.5-2.7-9.7C239.8,26.4,237.6,25.4,234.8,25.4z"/>
	<path class="st2" d="M271.6,18.5V43c0,3.7,1.2,6,3.7,6.9c0.8,0.2,1.6,0.4,2.4,0.4c2.9,0,5.2-1.2,7-3.5c0.5-0.6,0.8-1.2,1-1.7V18.5
		h10.1v34.6c0,3.6-1.5,5.4-4.5,5.4c-2.7,0-4.2-1.8-4.6-5.3c-2.7,3.6-6.7,5.5-11.8,5.5c-4.2,0-7.5-1.2-9.8-3.6
		c-2.4-2.5-3.7-6.3-3.7-11.3V18.5H271.6z"/>
	<path class="st2" d="M313.7,18.5v4.2c3.1-3.5,7.2-5.3,12.1-5.3c4.2,0,7.5,1.2,9.8,3.6c2.4,2.5,3.7,6.3,3.7,11.3v21.1
		c0,1.5-0.5,2.7-1.4,3.7c-1,1-2.2,1.4-3.7,1.4c-1.5,0-2.8-0.5-3.7-1.4c-0.9-1-1.4-2.2-1.4-3.7V33.1c0-3.7-1.2-6-3.7-6.9
		c-0.8-0.2-1.6-0.4-2.4-0.4c-2.9,0-5.2,1.2-7,3.5c-0.5,0.6-0.8,1.2-1,1.7v22.4c0,1.5-0.5,2.7-1.4,3.7c-1,1-2.2,1.4-3.7,1.4
		c-1.5,0-2.8-0.5-3.7-1.4c-0.9-1-1.4-2.2-1.4-3.7v-35H313.7z"/>
	<path class="st2" d="M384.2,1.8v51c0,3.8-1.7,5.8-5,5.8c-3.4,0-5-1.9-5-5.6V33.1c0-3.8-1.6-6.2-4.7-7.1c-0.9-0.3-1.9-0.4-3.1-0.4
		c-4.3,0-7.2,2.3-8.5,6.8c-0.5,1.6-0.7,3.6-0.7,6c0,4,0.8,7,2.3,9.1c1.6,2.1,3.6,3.1,6.2,3.1c0.4,0,1,0,1.8-0.1
		c0.8-0.1,1.3-0.1,1.7-0.1c2.4,0,3.5,1.2,3.5,3.5c0,2.4-1.8,3.9-5.3,4.6c-0.9,0.2-1.9,0.3-2.9,0.3c-5.5,0-9.9-1.7-13-5
		c-3.3-3.5-5-8.6-5-15.2s1.8-11.9,5.5-15.7c3.5-3.6,7.9-5.4,13.5-5.4c3.3,0,6.1,0.7,8.6,2.2V1.8H384.2z"/>
</g>
<g>
</g>
<g>
</g>
<g>
</g>
<g>
</g>
<g>
</g>
<g>
</g>
<g>
</g>
<g>
</g>
<g>
</g>
<g>
</g>
<g>
</g>
<g>
</g>
<g>
</g>
<g>
</g>
<g>
</g>
</svg>
