<?xml version="1.0"?>
<svg version="1.1" xmlns="http://www.w3.org/2000/svg" width="400" height="200" style="border: dashed 2px #aaa"><path fill="#326094" d="M37.28,113.52c0,6.48-5.24,8.08-10.92,8.08l-7.44,0c-0.84,0-1.04-0.32-1.04-1.16l0-25.48c0-0.84,0.36-1.04,1.2-1.04l6,0c6.44,0,10.04,1.96,10.04,6.76c0,2.8-1.6,5.24-4.52,5.88l0,0.04c3.8,0.28,6.68,2.88,6.68,6.92z M30.08,101.28c0-2.6-2.04-3.44-4.84-3.44l-2.24,0l0,7.44l2.08,0c2.92,0,5-0.76,5-4z M32.04,113.36c0-1.88-0.84-3.08-2.12-3.72c-1.24-0.6-2.6-0.72-4.28-0.72l-2.64,0l0,8.72l2.96,0c1.4,0,2.76-0.12,3.76-0.52c1.4-0.6,2.32-1.84,2.32-3.76z M62.66,120.84c0,0.48-0.32,0.76-0.8,0.76l-1.92,0c-2.08,0-3-1-3.28-2.36l-0.08,0c-1,1.48-3.6,2.84-5.8,2.84c-5.64,0-8.2-4.64-8.2-9.84c0-6.92,4.16-10.56,8.64-10.56c2.12,0,4.12,0.96,5.12,2.32l0.08-1.08c0.04-0.44,0.36-0.72,0.84-0.72l2.8,0c0.52,0,0.84,0.28,0.84,0.88l0,13.88c0,0.56,0.08,0.96,0.24,1.16c0.12,0.12,0.28,0.16,0.48,0.16l0.32,0c0.48,0,0.72,0.16,0.72,0.68l0,1.88z M56.06,115.4l0-7.72c-0.8-1.16-2.44-2.04-3.96-2.04c-2.44,0-4.52,2.08-4.52,6.28c0,3.36,1.28,6.2,4.24,6.2c1.96,0,3.64-1.48,4.24-2.72z M81.44,115.88c0,4.2-3.64,6.2-7.72,6.2c-2.08,0-4.36-0.6-6.16-1.4c-0.36-0.16-0.48-0.4-0.48-0.64c0-0.12,0.04-0.24,0.08-0.36l0.64-2.04c0.12-0.4,0.32-0.56,0.56-0.56c0.12,0,0.24,0,0.44,0.08c1.76,0.72,3.64,1.24,5.04,1.24c1.76,0,2.96-0.8,2.96-2.12c0-1.12-0.76-1.72-2.4-2.36l-3.16-1.2c-2.28-0.84-4.12-2.6-4.12-5.32c0-3.92,3.68-5.72,7.24-5.72c1.92,0,3.8,0.32,5.8,1.2c0.32,0.16,0.48,0.32,0.48,0.56c0,0.12-0.04,0.24-0.08,0.4l-0.68,2.16c-0.08,0.28-0.28,0.44-0.56,0.44c-0.12,0-0.28-0.04-0.4-0.08c-1.32-0.52-3.04-0.96-4.32-0.96c-1.68,0-2.52,0.92-2.52,1.84c0,0.88,0.44,1.44,1.96,2.04l3.6,1.48c2.12,0.88,3.8,2.52,3.8,5.12z M104.82,120.8c0,0.6-0.12,0.8-0.64,0.8l-3.52,0c-0.56,0-0.68-0.16-0.68-0.8l0-11.12c0-2.16-0.6-3.76-3-3.76c-1.56,0-3.56,0.84-4.8,1.92l0,12.96c0,0.6-0.16,0.8-0.76,0.8l-3.44,0c-0.48,0-0.64-0.2-0.64-0.72l0-26.44c0-0.72,0.32-0.92,0.88-1l2.76-0.36c0.16-0.04,0.36-0.04,0.52-0.04c0.44,0,0.68,0.2,0.68,0.76l0,10.04c1.68-1.4,4.2-2.16,6.32-2.16c4.48,0,6.32,2.84,6.32,7.16l0,11.96z M130.64,111.64c0,3.04-0.92,5.8-2.6,7.76c-1.48,1.68-3.56,2.72-6.16,2.72c-1.84,0-3.68-0.68-4.84-1.88l0,8.96c0,0.8-0.36,1.04-1.04,1.04l-2.8,0c-0.64,0-0.96-0.36-0.96-1.04l0-26.08c0-0.68,0.32-0.92,0.96-0.92l2.4,0c0.68,0,1.04,0.16,1.08,0.76l0.04,1.08c1.16-1.32,3.44-2.32,5.6-2.32c2.64,0,4.48,1,5.8,2.44c1.72,1.88,2.52,4.68,2.52,7.48z M125.6,111.88c0-1.88-0.36-3.52-1.16-4.64c-0.76-1.08-1.88-1.64-3.28-1.64c-1.48,0-3.32,0.96-4.12,1.96l0,8.72c0.8,1.08,2.4,1.96,3.92,1.96c1.4,0,2.52-0.64,3.2-1.48c1-1.24,1.44-2.92,1.44-4.88z M155.02,111.88c0,5.76-3.52,10.2-9.76,10.2c-6.52,0-9.52-4.4-9.52-10.24c0-5.76,3.52-10.16,9.76-10.16c6.52,0,9.52,4.32,9.52,10.2z M150.02,111.88c0-3.28-1.04-6.4-4.56-6.4c-3.56,0-4.72,3.08-4.72,6.28c0,3.28,1,6.52,4.56,6.52c3.52,0,4.72-3.12,4.72-6.4z M178.52,120.48c0,0.84-0.24,1.12-1.04,1.12l-2.56,0c-0.52,0-0.92-0.28-0.96-0.8l-0.04-1c-1.84,1.48-4.04,2.28-6.36,2.28c-4.48,0-6.32-2.84-6.32-7.16l0-11.8c0-0.68,0.4-0.92,1.04-0.92l2.8,0c0.64,0,1,0.2,1,0.92l0,10.96c0,2.2,0.56,3.72,2.96,3.72c1.52,0,3.44-0.84,4.64-1.92l0-12.76c0-0.68,0.36-0.92,1-0.92l2.84,0c0.64,0,1,0.2,1,0.92l0,17.36z M203.3,120.56c0,0.68-0.24,1.04-0.96,1.04l-2.88,0c-0.72,0-0.96-0.36-0.96-1.04l0-10.88c0-2.2-0.6-3.76-3.04-3.76c-1.56,0-3.48,0.84-4.72,1.92l0,12.76c0,0.68-0.28,1-0.96,1l-2.92,0c-0.6,0-0.96-0.32-0.96-0.96l0-17.44c0-0.64,0.28-1,1-1l2.6,0c0.56,0,0.92,0.16,0.96,0.76l0.04,1.04c1.84-1.48,4.16-2.32,6.48-2.32c4.48,0,6.32,2.8,6.32,7.16l0,11.72z M227.96,120.6c0,0.68-0.4,1-0.88,1l-2.6,0c-0.64,0-0.92-0.32-0.96-0.8l-0.08-1.08c-1.12,1.28-3.36,2.36-5.44,2.36c-5.8,0-8.44-4.6-8.44-9.96c0-5.6,3.12-10.48,8.76-10.48c1.8,0,3.68,0.72,4.8,1.88l0-9c0-0.72,0.2-1,0.84-1.08l2.96-0.4c0.04,0,0.36-0.04,0.4-0.04c0.48,0,0.64,0.2,0.64,0.8l0,26.8z M223.12,116.16l0-8.68c-0.8-1.08-2.32-1.96-3.84-1.96c-3.24,0-4.68,3.04-4.68,6.32s1.2,6.32,4.44,6.32c1.48,0,3.28-1,4.08-2z"/><path fill="#cc1b1b" d="M253.9,110.26c0.02,0.34-0.08,0.54-0.46,0.54l-1.62,0c-0.42,0-0.5-0.2-0.52-0.66l-0.28-8.12l-0.04,0l-3.4,8.42c-0.12,0.32-0.32,0.36-0.54,0.36l-0.7,0c-0.3,0-0.48-0.06-0.62-0.38l-3.78-8.4l-0.04,0l-0.18,8.28c0,0.44-0.18,0.5-0.54,0.5l-1.36,0c-0.38,0-0.54-0.14-0.52-0.52l0.5-12.78c0.02-0.42,0.16-0.54,0.48-0.54l1.18,0c0.4,0,0.54,0.14,0.68,0.44l4.62,9.88l0.04,0l4.22-9.88c0.12-0.3,0.28-0.44,0.64-0.44l1.18,0c0.32,0,0.44,0.12,0.46,0.44z M267.19,110.42c0,0.24-0.16,0.38-0.4,0.38l-0.96,0c-1.04,0-1.5-0.5-1.64-1.18l-0.04,0c-0.5,0.74-1.8,1.42-2.9,1.42c-2.82,0-4.1-2.32-4.1-4.92c0-3.46,2.08-5.28,4.32-5.28c1.06,0,2.06,0.48,2.56,1.16l0.04-0.54c0.02-0.22,0.18-0.36,0.42-0.36l1.4,0c0.26,0,0.42,0.14,0.42,0.44l0,6.94c0,0.28,0.04,0.48,0.12,0.58c0.06,0.06,0.14,0.08,0.24,0.08l0.16,0c0.24,0,0.36,0.08,0.36,0.34l0,0.94z M263.89,107.7l0-3.86c-0.4-0.58-1.22-1.02-1.98-1.02c-1.22,0-2.26,1.04-2.26,3.14c0,1.68,0.64,3.1,2.12,3.1c0.98,0,1.82-0.74,2.12-1.36z M275.6,101.18c0,0.06,0,0.12-0.02,0.18l-0.22,1.42c-0.02,0.18-0.12,0.26-0.28,0.26l-0.08,0c-0.16-0.04-0.36-0.06-0.54-0.06c-0.68,0-1.42,0.36-1.92,0.96l0,6.36c0,0.32-0.14,0.5-0.48,0.5l-1.46,0c-0.32,0-0.48-0.16-0.48-0.5l0-6.24l0-2.46c0-0.4,0.2-0.5,0.5-0.5l1.28,0c0.32,0,0.5,0.1,0.5,0.38l0.02,0.64c0.62-0.78,1.3-1.28,2.42-1.28c0.16,0,0.38,0.04,0.56,0.08c0.14,0.04,0.2,0.1,0.2,0.26z M286.31,110.56c0,0.18-0.18,0.24-0.38,0.24l-1.72,0c-0.36,0-0.6-0.1-0.8-0.42l-2.56-4.2l-0.22,0.2l0,2.78l0,1.14c0,0.34-0.14,0.5-0.46,0.5l-1.5,0c-0.3,0-0.46-0.18-0.46-0.48l0-13.12c0-0.32,0.12-0.44,0.42-0.48l1.46-0.2c0.06,0,0.1-0.02,0.16-0.02c0.24,0,0.38,0.12,0.38,0.46l0,3.36l0,4.66l0.04,0l2.62-3.6c0.16-0.22,0.28-0.28,0.54-0.28l1.78,0c0.16,0,0.26,0.08,0.26,0.2c0,0.06-0.02,0.14-0.08,0.22l-2.86,3.6l3.24,5.06c0.08,0.12,0.14,0.26,0.14,0.38z M297.56,105.92c0,0.48-0.16,0.58-0.66,0.58l-5.86,0c0.16,1.54,1.28,2.6,2.86,2.6c0.84,0,1.72-0.2,2.46-0.48c0.08-0.02,0.14-0.06,0.22-0.06c0.14,0,0.24,0.08,0.28,0.24l0.28,1.02c0.02,0.1,0.04,0.18,0.04,0.24c0,0.14-0.08,0.24-0.32,0.34c-0.98,0.44-2.32,0.64-3.36,0.64c-3.14,0-5-2-5-5.12c0-3,1.98-5.08,4.96-5.08c1.22,0,2.22,0.46,2.92,1.2c0.92,0.96,1.18,2.22,1.18,3.58l0,0.3z M295.18,104.92l0-0.22c-0.04-1.04-0.64-2-1.86-2c-1.3,0-2.08,1.04-2.24,2.22l4.1,0z M306.61,110.2c0,0.2-0.1,0.3-0.3,0.38c-0.62,0.26-1.44,0.46-2.24,0.46c-1.02,0-1.9-0.26-2.4-0.84c-0.62-0.7-0.64-1.52-0.64-2.98l0-4.46l-0.94,0c-0.38,0-0.44-0.08-0.44-0.5l0-0.76c0-0.24,0.12-0.4,0.36-0.4l1.02,0l0-2.18c0-0.34,0.18-0.44,0.5-0.48l1.44-0.18l0.1,0c0.26,0,0.38,0.14,0.38,0.44l0,2.4l2.26,0c0.24,0,0.38,0.08,0.38,0.34l0,0.94c0,0.24-0.16,0.38-0.4,0.38l-2.24,0l0,4.58c0,0.6,0.04,1.04,0.26,1.36c0.18,0.26,0.46,0.42,0.94,0.42c0.5,0,0.92-0.12,1.28-0.24c0.08-0.02,0.14-0.04,0.2-0.04c0.14,0,0.22,0.08,0.26,0.24l0.2,1c0.02,0.06,0.02,0.08,0.02,0.12z M318.56,105.82c0,1.52-0.46,2.9-1.3,3.88c-0.74,0.84-1.78,1.36-3.08,1.36c-0.92,0-1.84-0.34-2.42-0.94l0,4.48c0,0.4-0.18,0.52-0.52,0.52l-1.4,0c-0.32,0-0.48-0.18-0.48-0.52l0-13.04c0-0.34,0.16-0.46,0.48-0.46l1.2,0c0.34,0,0.52,0.08,0.54,0.38l0.02,0.54c0.58-0.66,1.72-1.16,2.8-1.16c1.32,0,2.24,0.5,2.9,1.22c0.86,0.94,1.26,2.34,1.26,3.74z M316.04,105.94c0-0.94-0.18-1.76-0.58-2.32c-0.38-0.54-0.94-0.82-1.64-0.82c-0.74,0-1.66,0.48-2.06,0.98l0,4.36c0.4,0.54,1.2,0.98,1.96,0.98c0.7,0,1.26-0.32,1.6-0.74c0.5-0.62,0.72-1.46,0.72-2.44z M324.11,110.3c0,0.34-0.16,0.5-0.44,0.5l-1.52,0c-0.28,0-0.46-0.14-0.46-0.48l0-13.12c0-0.34,0.14-0.44,0.4-0.48l1.44-0.2c0.04,0,0.1-0.02,0.14-0.02c0.24,0,0.44,0.12,0.44,0.44l0,13.36z M337.24,110.42c0,0.24-0.16,0.38-0.4,0.38l-0.96,0c-1.04,0-1.5-0.5-1.64-1.18l-0.04,0c-0.5,0.74-1.8,1.42-2.9,1.42c-2.82,0-4.1-2.32-4.1-4.92c0-3.46,2.08-5.28,4.32-5.28c1.06,0,2.06,0.48,2.56,1.16l0.04-0.54c0.02-0.22,0.18-0.36,0.42-0.36l1.4,0c0.26,0,0.42,0.14,0.42,0.44l0,6.94c0,0.28,0.04,0.48,0.12,0.58c0.06,0.06,0.14,0.08,0.24,0.08l0.16,0c0.24,0,0.36,0.08,0.36,0.34l0,0.94z M333.94,107.7l0-3.86c-0.4-0.58-1.22-1.02-1.98-1.02c-1.22,0-2.26,1.04-2.26,3.14c0,1.68,0.64,3.1,2.12,3.1c0.98,0,1.82-0.74,2.12-1.36z M347.47,110.12c0,0.16-0.1,0.24-0.28,0.32c-0.96,0.44-1.84,0.6-2.9,0.6c-3.08,0-4.78-1.92-4.78-5c0-3.1,1.86-5.2,4.96-5.2c0.9,0,1.84,0.18,2.68,0.56c0.16,0.08,0.24,0.12,0.24,0.28c0,0.06-0.02,0.18-0.04,0.24l-0.26,1.06c-0.04,0.18-0.12,0.28-0.24,0.28c-0.06,0-0.14-0.04-0.22-0.08c-0.58-0.24-1.22-0.44-1.92-0.44c-1.72,0-2.7,1.22-2.7,3.18c0,1.92,0.88,3.24,2.6,3.24c0.86,0,1.4-0.16,2.1-0.44c0.06-0.02,0.14-0.06,0.2-0.06c0.12,0,0.2,0.1,0.24,0.24l0.26,0.88c0.04,0.14,0.06,0.26,0.06,0.34z M358.78,105.92c0,0.48-0.16,0.58-0.66,0.58l-5.86,0c0.16,1.54,1.28,2.6,2.86,2.6c0.84,0,1.72-0.2,2.46-0.48c0.08-0.02,0.14-0.06,0.22-0.06c0.14,0,0.24,0.08,0.28,0.24l0.28,1.02c0.02,0.1,0.04,0.18,0.04,0.24c0,0.14-0.08,0.24-0.32,0.34c-0.98,0.44-2.32,0.64-3.36,0.64c-3.14,0-5-2-5-5.12c0-3,1.98-5.08,4.96-5.08c1.22,0,2.22,0.46,2.92,1.2c0.92,0.96,1.18,2.22,1.18,3.58l0,0.3z M356.4,104.92l0-0.22c-0.04-1.04-0.64-2-1.86-2c-1.3,0-2.08,1.04-2.24,2.22l4.1,0z"/></svg>
