<svg id="레이어_1" data-name="레이어 1" xmlns="http://www.w3.org/2000/svg" viewBox="0 0 400 102"><defs><style>.cls-1{fill:#0071bc;}.cls-2{fill:#ff580e;}</style></defs><title>logo</title><path class="cls-1" d="M18.33,6.19q10.51,0,15.19,1.73,7.92,2.88,7.92,11.45,0,6.7-7.2,10.58,8.93,3.38,8.93,12.24,0,7.13-4.61,11.3-5,4.54-15,4.54a11.07,11.07,0,0,1-4.61-.65,3.42,3.42,0,0,1-2.09-3.31,3.37,3.37,0,0,1,1.73-3.24,6.2,6.2,0,0,1,3-.72L24.67,50q7.27-.65,7.27-7.49a6.25,6.25,0,0,0-4-6.12,14.87,14.87,0,0,0-6-1.15H15V53a5.23,5.23,0,0,1-1.4,3.82A4.85,4.85,0,0,1,10,58.24q-5,0-5-5v-47ZM15,27.5h9a7.78,7.78,0,0,0,4.57-2.27,6.34,6.34,0,0,0,1.76-4.57,6.06,6.06,0,0,0-1.4-3.85,6,6,0,0,0-3.38-2.23,26.54,26.54,0,0,0-5.72-.47H15Z"/><path class="cls-1" d="M86.95,18.5v35q0,4.32-4.18,5a6.67,6.67,0,0,1-.94.07,4.81,4.81,0,0,1-5-5V33.12q0-5.69-4.46-7.13a10.26,10.26,0,0,0-3.1-.43q-6.63,0-8.78,6.84a21.41,21.41,0,0,0-.72,6q0,6,2.45,9.22a7.19,7.19,0,0,0,6.12,3,15.33,15.33,0,0,0,1.8-.14,15.32,15.32,0,0,1,1.73-.14q3.6,0,3.6,3.53,0,2.38-2.74,3.74a12.69,12.69,0,0,1-5.54,1.08q-8.35,0-13-4.9-5-5.26-5-15.19t5.47-15.7a17.82,17.82,0,0,1,13.46-5.4,15.65,15.65,0,0,1,10.3,3.38l.86-2.38Z"/><path class="cls-1" d="M118.91,28.36a19.57,19.57,0,0,0-9.58-2.74q-5.47,0-5.47,3,0,2.09,3.67,4,2.73,1.15,8,3.74,6.62,3.67,6.62,10a11,11,0,0,1-4.61,9.43,17.72,17.72,0,0,1-10.66,3,28.11,28.11,0,0,1-8-1q-5.11-1.58-5.11-5a3.66,3.66,0,0,1,1.26-3,4.75,4.75,0,0,1,3.13-1,8.86,8.86,0,0,1,2.81.58,18.49,18.49,0,0,0,6.26,1.22q5.33,0,5.33-3.31,0-2.52-4-4.25a73.88,73.88,0,0,1-7.78-3.74q-6.48-3.67-6.48-10.08A10,10,0,0,1,99,20.3a17.91,17.91,0,0,1,10.08-2.66,27.77,27.77,0,0,1,12.67,2.66Z"/><path class="cls-1" d="M139.14,1.8V21.67a14.75,14.75,0,0,1,7.2-3.74,15.73,15.73,0,0,1,3.82-.43q6.77,0,10.22,4.32,3,3.82,3,10.58v21.1a4.53,4.53,0,0,1-3.1,4.68,5.09,5.09,0,0,1-2,.43,4.85,4.85,0,0,1-3.64-1.44,5,5,0,0,1-1.4-3.67V33.12q0-5.54-3.67-6.91a8.17,8.17,0,0,0-2.45-.36,8.34,8.34,0,0,0-7,3.53,6.6,6.6,0,0,0-1,1.73V53.49a4.53,4.53,0,0,1-3.1,4.68,5.08,5.08,0,0,1-2,.43,4.85,4.85,0,0,1-3.64-1.44,5,5,0,0,1-1.4-3.67V1.8Z"/><path d="M181.33,18.5v4.25a15.21,15.21,0,0,1,11.88-5.26q8.06,0,12.38,5t4.32,14.8q0,10.08-4.9,15.66a16.4,16.4,0,0,1-13,5.58q-8.07,0-8.06-4.82a3.31,3.31,0,0,1,1.12-2.63,4.07,4.07,0,0,1,2.77-1,15.38,15.38,0,0,1,1.73.14,15.32,15.32,0,0,0,1.8.14q5.83,0,7.49-6.77a24.44,24.44,0,0,0,.58-5.69q0-6.41-2.3-9.58a7.08,7.08,0,0,0-6-2.81,8.46,8.46,0,0,0-7.56,3.82,6.66,6.66,0,0,0-.94,2.3V69.55a4.85,4.85,0,0,1-1.44,3.64,5,5,0,0,1-3.67,1.4,4.81,4.81,0,0,1-5-5v-51Z"/><path d="M234.83,17.49q9.14,0,14.47,6,5,5.62,5,14.69,0,9.79-5.76,15.41-5.33,5.26-13.75,5.26-9.15,0-14.54-6-5-5.62-5-14.69,0-9.86,5.76-15.48Q226.41,17.49,234.83,17.49Zm0,7.92q-6.41,0-8.5,6.91a22.69,22.69,0,0,0-.65,5.76q0,6.34,2.59,9.65a8,8,0,0,0,6.55,3q6.41,0,8.5-7a19.77,19.77,0,0,0,.72-5.69q0-6.33-2.66-9.72A8,8,0,0,0,234.83,25.41Z"/><path d="M271.62,18.5V43q0,5.55,3.67,6.91a8.13,8.13,0,0,0,2.45.36,8.34,8.34,0,0,0,7-3.53,6.65,6.65,0,0,0,1-1.73V18.5h10.08V53.06q0,5.4-4.46,5.4-4,0-4.61-5.33-4.1,5.47-11.81,5.47-6.34,0-9.79-3.6-3.67-3.81-3.67-11.3V18.5Z"/><path d="M313.74,18.5v4.25a15.45,15.45,0,0,1,12.1-5.26q6.33,0,9.79,3.6,3.67,3.82,3.67,11.3v21.1a4.93,4.93,0,0,1-5.11,5.11,4.82,4.82,0,0,1-3.67-1.44,5.12,5.12,0,0,1-1.37-3.67V33.12q0-5.54-3.67-6.91a8.17,8.17,0,0,0-2.45-.36,8.34,8.34,0,0,0-7,3.53,6.6,6.6,0,0,0-1,1.73V53.49a4.93,4.93,0,0,1-5.11,5.11,4.82,4.82,0,0,1-3.67-1.44,5.11,5.11,0,0,1-1.37-3.67v-35Z"/><path d="M384.23,1.8v51q0,5.76-5,5.76t-5-5.62V33.12q0-5.69-4.68-7.13a10.26,10.26,0,0,0-3.1-.43q-6.48,0-8.5,6.84a21.42,21.42,0,0,0-.72,6q0,6,2.34,9.11a7.32,7.32,0,0,0,6.16,3.13,15.33,15.33,0,0,0,1.8-.14,15.31,15.31,0,0,1,1.73-.14q3.53,0,3.53,3.53t-5.33,4.61a13.93,13.93,0,0,1-2.88.29q-8.28,0-13-5-5-5.26-5-15.19T352,22.89a17.83,17.83,0,0,1,13.46-5.4,17,17,0,0,1,8.64,2.16V1.8Z"/><path class="cls-2" d="M252.85,81v1.44a4.41,4.41,0,0,1,1.46-1.15,5.11,5.11,0,0,1,2.42-.62,3.73,3.73,0,0,1,3.58,1.82,5.17,5.17,0,0,1,2.54-1.63,4.49,4.49,0,0,1,1.32-.19,4.19,4.19,0,0,1,3.1,1.08,4.62,4.62,0,0,1,1.18,3.41v7.51a1.7,1.7,0,0,1-.46,1.22,1.74,1.74,0,0,1-2.4,0,1.71,1.71,0,0,1-.46-1.22V85.58q0-1.63-1.06-2a2.12,2.12,0,0,0-.72-.12,2.56,2.56,0,0,0-2.18,1.13,2,2,0,0,0-.31.58v7.51a1.5,1.5,0,0,1-1.13,1.61,1.52,1.52,0,0,1-.53.1,1.58,1.58,0,0,1-1.2-.48,1.71,1.71,0,0,1-.46-1.22V85.58q0-1.63-1.06-2a2.12,2.12,0,0,0-.72-.12,2.52,2.52,0,0,0-2.18,1.13,1.45,1.45,0,0,0-.31.58v7.51a1.68,1.68,0,0,1-.47,1.22,1.73,1.73,0,0,1-2.39,0,1.71,1.71,0,0,1-.46-1.22V81Z"/><path class="cls-2" d="M283.42,81V92.66A1.49,1.49,0,0,1,282,94.32l-.31,0A1.6,1.6,0,0,1,280,92.66V85.87a2.2,2.2,0,0,0-1.49-2.38,3.44,3.44,0,0,0-1-.14,2.88,2.88,0,0,0-2.93,2.28,7.14,7.14,0,0,0-.24,2,5,5,0,0,0,.82,3.07,2.4,2.4,0,0,0,2,1,5.1,5.1,0,0,0,.6,0,5.13,5.13,0,0,1,.58,0,1.05,1.05,0,0,1,1.2,1.18,1.39,1.39,0,0,1-.91,1.25,4.23,4.23,0,0,1-1.85.36,5.65,5.65,0,0,1-4.32-1.63,7.1,7.1,0,0,1-1.66-5.06,7.29,7.29,0,0,1,1.82-5.23,5.94,5.94,0,0,1,4.49-1.8,5.22,5.22,0,0,1,3.43,1.13l.29-.79Z"/><path class="cls-2" d="M289,81l.14,1.78A4.09,4.09,0,0,1,293,80.54a3.09,3.09,0,0,1,.63,0V84a4,4,0,0,0-1-.1,3.34,3.34,0,0,0-1.85.48,2.17,2.17,0,0,0-1,1.58v6.67a1.56,1.56,0,0,1-.65,1.37,1.8,1.8,0,0,1-1.06.34,1.62,1.62,0,0,1-1.21-.48,1.68,1.68,0,0,1-.47-1.22V81Z"/><path class="cls-2" d="M298.83,75.43V92.66a1.51,1.51,0,0,1-1,1.56,1.69,1.69,0,0,1-.67.14,1.62,1.62,0,0,1-1.21-.48,1.68,1.68,0,0,1-.47-1.22V75.43ZM307.45,81l-5,5.76,4.2,4.9a1.69,1.69,0,0,1,.43,1.13,1.46,1.46,0,0,1-.49,1.15,1.77,1.77,0,0,1-1.21.43,1.71,1.71,0,0,1-1.42-.72l-4.44-5.71a1.62,1.62,0,0,1-.36-1,1.65,1.65,0,0,1,.38-1.06L303.34,81Z"/><path class="cls-2" d="M314.12,88.75q-1.56,0-1.56-1.32a1.2,1.2,0,0,1,1.06-1.27,2.84,2.84,0,0,1,.5,0h3.36a3.17,3.17,0,0,0-.72-2.28,2.49,2.49,0,0,0-1.87-.74,2.78,2.78,0,0,0-2.52,1.42,5.33,5.33,0,0,0-.74,2.9,4.47,4.47,0,0,0,1.15,3.34,3.53,3.53,0,0,0,2.62,1,8.19,8.19,0,0,0,2.83-.53,3.2,3.2,0,0,1,1-.22q1.17,0,1.18,1.08a1.47,1.47,0,0,1-.67,1.2,7,7,0,0,1-3.41,1.18,9.53,9.53,0,0,1-1.13.07,6.66,6.66,0,0,1-5.11-1.9,7.13,7.13,0,0,1-1.7-5.06,6.89,6.89,0,0,1,2-5.21,6.52,6.52,0,0,1,4.63-1.73,5.51,5.51,0,0,1,4.44,1.8,8.14,8.14,0,0,1,1.54,5.4v.94Z"/><path class="cls-2" d="M327.25,78.31V81H329q1.7,0,1.7,1.37T329,83.69h-1.8V90q0,1.39.38,1.61a1.35,1.35,0,0,0,.55.1,3.33,3.33,0,0,0,.7-.1,3.37,3.37,0,0,1,.67-.1q1.25,0,1.25,1.18t-1.94,1.63a5.56,5.56,0,0,1-1.3.14,4.46,4.46,0,0,1-2.54-.6,3,3,0,0,1-1.1-2.23q0-.5,0-1.42v-6.5H322V81h1.9V78.31Z"/><path class="cls-2" d="M335.19,81v1.42a5.07,5.07,0,0,1,4-1.75,5.16,5.16,0,0,1,4.13,1.67,7.36,7.36,0,0,1,1.44,4.93,7.66,7.66,0,0,1-1.63,5.22,5.47,5.47,0,0,1-4.32,1.86q-2.69,0-2.69-1.61a1.1,1.1,0,0,1,.37-.88,1.36,1.36,0,0,1,.92-.32,5.15,5.15,0,0,1,.58,0,5.12,5.12,0,0,0,.6,0q1.94,0,2.5-2.26a8.15,8.15,0,0,0,.19-1.9,5.43,5.43,0,0,0-.77-3.19,2.36,2.36,0,0,0-2-.94,2.82,2.82,0,0,0-2.52,1.27,2.22,2.22,0,0,0-.31.77V98a1.62,1.62,0,0,1-.48,1.21,1.68,1.68,0,0,1-1.22.47A1.61,1.61,0,0,1,332.24,98V81Z"/><path class="cls-2" d="M350.5,75.43V92.66a1.51,1.51,0,0,1-1,1.56,1.69,1.69,0,0,1-.67.14,1.62,1.62,0,0,1-1.21-.48,1.68,1.68,0,0,1-.47-1.22V75.43Z"/><path class="cls-2" d="M365.48,81V92.66a1.49,1.49,0,0,1-1.39,1.66l-.31,0a1.6,1.6,0,0,1-1.68-1.68V85.87a2.2,2.2,0,0,0-1.49-2.38,3.43,3.43,0,0,0-1-.14,2.88,2.88,0,0,0-2.93,2.28,7.13,7.13,0,0,0-.24,2,5,5,0,0,0,.82,3.07,2.4,2.4,0,0,0,2,1,5.1,5.1,0,0,0,.6,0,5.15,5.15,0,0,1,.58,0,1.05,1.05,0,0,1,1.2,1.18,1.39,1.39,0,0,1-.91,1.25,4.23,4.23,0,0,1-1.85.36,5.64,5.64,0,0,1-4.32-1.63,7.1,7.1,0,0,1-1.66-5.06,7.29,7.29,0,0,1,1.82-5.23,5.94,5.94,0,0,1,4.49-1.8,5.22,5.22,0,0,1,3.43,1.13l.29-.79Z"/><path class="cls-2" d="M378,84.31a5.21,5.21,0,0,0-2.93-.89,3.59,3.59,0,0,0-2.86,1.13,4.38,4.38,0,0,0-.89,2.9,4.76,4.76,0,0,0,1,3.19,2.82,2.82,0,0,0,2.26,1.06,4.83,4.83,0,0,0,2.18-.46,2.43,2.43,0,0,1,1.08-.29,1.23,1.23,0,0,1,.85.31,1,1,0,0,1,.35.82q0,1-1.66,1.73a7.42,7.42,0,0,1-3.07.62,6.33,6.33,0,0,1-4.61-1.66,6.86,6.86,0,0,1-1.85-5.18,7.34,7.34,0,0,1,1-3.94q1.87-3,6-3a9.72,9.72,0,0,1,4.13.89Z"/><path class="cls-2" d="M386.21,88.75q-1.56,0-1.56-1.32a1.2,1.2,0,0,1,1.06-1.27,2.84,2.84,0,0,1,.5,0h3.36a3.17,3.17,0,0,0-.72-2.28,2.49,2.49,0,0,0-1.87-.74,2.78,2.78,0,0,0-2.52,1.42,5.33,5.33,0,0,0-.74,2.9,4.47,4.47,0,0,0,1.15,3.34,3.53,3.53,0,0,0,2.62,1,8.19,8.19,0,0,0,2.83-.53,3.2,3.2,0,0,1,1-.22q1.17,0,1.18,1.08a1.47,1.47,0,0,1-.67,1.2,7,7,0,0,1-3.41,1.18,9.53,9.53,0,0,1-1.13.07,6.66,6.66,0,0,1-5.11-1.9,7.13,7.13,0,0,1-1.7-5.06,6.89,6.89,0,0,1,2-5.21A6.52,6.52,0,0,1,387,80.62a5.51,5.51,0,0,1,4.44,1.8,8.14,8.14,0,0,1,1.54,5.4v.94Z"/></svg>